<?xml version="1.0" encoding="utf-8"?>
<!-- Generator: Adobe Illustrator 16.0.1, SVG Export Plug-In . SVG Version: 6.00 Build 0)  -->
<!DOCTYPE svg PUBLIC "-//W3C//DTD SVG 1.1//EN" "http://www.w3.org/Graphics/SVG/1.1/DTD/svg11.dtd">
<svg version="1.1" id="Layer_1" xmlns="http://www.w3.org/2000/svg" xmlns:xlink="http://www.w3.org/1999/xlink" x="0px" y="0px"
	 width="200px" height="114.639px" viewBox="0 0 200 114.639" enable-background="new 0 0 200 114.639" xml:space="preserve">
<g>
	<g enable-background="new    ">
		<path d="M8.059,15.786C5.92,6.083,5.428,4.438,2.303,3.615L0,2.958V0.655h29.113v2.304l-2.468,0.494
			c-5.264,1.151-4.77,6.416-3.29,13.486l12.993,64.476l9.539-51.316L42.434,12.5c-1.314-6.249-1.81-8.226-5.099-9.046L35.196,2.96
			V0.657h30.098V2.96l-3.619,0.657c-5.427,0.986-4.604,6.905-3.289,13.321l12.5,64.476l12.335-61.02
			c2.303-12.665,1.152-15.79-3.782-16.776l-3.454-0.657V0.659h20.89v2.302l-2.303,0.822c-3.29,1.151-4.112,4.276-6.415,15.133
			l-20.065,95.723h-4.277l-15.46-74.671l-13.98,74.671h-5.428L8.059,15.786z"/>
		<path d="M123.191,114.637c-9.539,0-12.828-6.578-15.953-6.578c-1.811,0-3.947,0.494-5.592,5.922h-1.974v-37.5h2.468
			c1.973,21.218,9.867,34.539,20.889,34.539c7.4,0,12.5-6.744,12.5-18.914c0-25.657-36.678-36.679-36.678-65.133
			C98.852,11.678,106.582,0,120.562,0c9.045,0,10.854,5.921,14.639,5.921c2.139,0,3.619-1.646,4.441-5.264h1.973v37.499h-2.469
			c-1.974-18.914-6.908-34.539-18.75-34.539c-8.224,0-9.703,8.224-9.703,13.816c0,24.506,36.678,32.894,36.678,67.104
			C147.369,101.973,137.83,114.637,123.191,114.637z"/>
		<path d="M191.939,87.826c0,17.6-8.881,26.811-22.533,26.811c-12.338,0-19.572-10.031-19.408-21.051
			c0.166-8.553,6.414-12.83,11.514-12.172c3.619,0.492,7.236,3.125,6.744,8.881c-0.494,8.223-9.377,7.895-9.705,12.992
			c-0.328,3.127,3.783,7.731,9.047,7.731c9.211,0,9.211-11.678,9.211-20.561V10.688c0-4.604-1.479-5.921-5.1-6.743l-4.111-0.986
			V0.655H200v2.304l-3.621,0.986c-3.289,0.822-4.439,2.303-4.439,6.906V87.826L191.939,87.826z"/>
	</g>
</g>
</svg>
